<?xml version="1.0" standalone="no"?><!DOCTYPE svg PUBLIC "-//W3C//DTD SVG 1.1//EN" "http://www.w3.org/Graphics/SVG/1.1/DTD/svg11.dtd"><svg t="1644310550730" class="icon" viewBox="0 0 1024 1024" version="1.1" xmlns="http://www.w3.org/2000/svg" p-id="737" xmlns:xlink="http://www.w3.org/1999/xlink" width="200" height="200"><defs><style type="text/css"></style></defs><path d="M563.96 511.72l376.43-376.43c14.29-14.29 14.29-37.43 0-51.71s-37.43-14.29-51.71 0L512.25 460.01 135.82 83.58c-14.29-14.29-37.43-14.29-51.71 0s-14.29 37.43 0 51.71l376.43 376.43L84.1 888.15c-14.29 14.29-14.29 37.43 0 51.71 7.14 7.14 16.5 10.71 25.86 10.71s18.71-3.57 25.86-10.71l376.43-376.43 376.43 376.43c7.14 7.14 16.5 10.71 25.86 10.71s18.71-3.57 25.86-10.71c14.29-14.29 14.29-37.43 0-51.71L563.96 511.72z" p-id="738"></path></svg>