<?xml version="1.0" encoding="UTF-8"?><svg id="_层_1" xmlns="http://www.w3.org/2000/svg" xmlns:xlink="http://www.w3.org/1999/xlink" viewBox="0 0 800 800"><defs><style>.cls-1{fill:url(#_命名的渐变_125);}.cls-2{fill:url(#_命名的渐变_64-6);}.cls-3{fill:url(#_命名的渐变_125-2);}.cls-4{fill:url(#_命名的渐变_64);}.cls-5{fill:url(#_命名的渐变_64-5);}.cls-6{fill:url(#_命名的渐变_64-2);}.cls-7{fill:url(#_命名的渐变_64-7);}.cls-8{fill:url(#_命名的渐变_64-3);}.cls-9{fill:url(#_命名的渐变_64-4);}</style><linearGradient id="_命名的渐变_64" x1="243.12" y1="290.49" x2="248.67" y2="514.36" gradientTransform="matrix(1, 0, 0, 1, 0, 0)" gradientUnits="userSpaceOnUse"><stop offset=".23" stop-color="#66b8e0"/><stop offset=".9" stop-color="#064c93"/></linearGradient><linearGradient id="_命名的渐变_64-2" x1="276.9" y1="289.65" x2="282.45" y2="513.52" xlink:href="#_命名的渐变_64"/><linearGradient id="_命名的渐变_125" x1="201.01" y1="278.29" x2="252.81" y2="522.51" gradientTransform="matrix(1, 0, 0, 1, 0, 0)" gradientUnits="userSpaceOnUse"><stop offset="0" stop-color="#aacc32"/><stop offset="0" stop-color="#8dc35b"/><stop offset="1" stop-color="#1998cd"/></linearGradient><linearGradient id="_命名的渐变_125-2" x1="142.83" y1="290.63" x2="194.64" y2="534.85" xlink:href="#_命名的渐变_125"/><linearGradient id="_命名的渐变_64-3" x1="111.63" y1="293.75" x2="117.18" y2="517.62" xlink:href="#_命名的渐变_64"/><linearGradient id="_命名的渐变_64-4" x1="214.62" y1="291.2" x2="220.17" y2="515.07" xlink:href="#_命名的渐变_64"/><linearGradient id="_命名的渐变_64-5" x1="290.01" y1="289.33" x2="295.56" y2="513.19" xlink:href="#_命名的渐变_64"/><linearGradient id="_命名的渐变_64-6" x1="309.32" y1="288.84" x2="314.87" y2="512.73" xlink:href="#_命名的渐变_64"/><linearGradient id="_命名的渐变_64-7" x1="328.55" y1="288.38" x2="334.1" y2="512.24" xlink:href="#_命名的渐变_64"/></defs><path class="cls-4" d="M236.47,396.33v10c2.58,.78,5.22,1.55,7.99,2.28v87.61c1.99-1.01,3.97-2.05,5.93-3.18,1.75-.95,3.43-1.91,5.07-2.86v-86.2s-8.03-2.63-18.98-7.66Z"/><path class="cls-6" d="M273.57,406.72v6.73c1.73,.52,3.51,1.05,5.37,1.53v58.9c1.34-.68,2.67-1.38,3.98-2.14,1.18-.64,2.3-1.28,3.41-1.92v-57.94s-5.4-1.77-12.76-5.15Z"/><g><path class="cls-1" d="M231.71,346.23s11.82,15.93,33.75,25.85v112.01c2.21-1.41,4.32-2.86,6.33-4.22v-112.42s-33.47-18.79-44.04-53.67h-28.51v200.74c10.3-2.86,21.19-6.85,32.46-12v-156.29Z"/><path class="cls-3" d="M185.98,517.73v-134.98s3.12,2.42,9.1,5.91v-18.49c-6.49-5.89-12.12-12.51-16-19.88h-22.92v170c8.84,.42,18.88-.39,29.82-2.56Z"/></g><path class="cls-8" d="M151.9,450.91c-40.4-10.46-33.91,23.82-72.41,13.36,28.69,32.34,54.87-9.26,72.41-13.36Z"/><g><path class="cls-9" d="M151.9,454.45c-69.28,71.24,9.62,102.06,106.79,48.16,97.19-53.86,45.24-92.76,29.38-91.86,84.17-.49,57.23,100.53-61.11,137.56,0,0,21.29,4.85,70.11-27.06-92.73,114.39-286.85,24.93-145.16-66.79Z"/><polygon class="cls-5" points="292.65 383.48 294.14 394.51 305.18 396 294.14 397.49 292.65 408.52 291.16 397.49 280.13 396 291.16 394.51 292.65 383.48"/><polygon class="cls-2" points="312.16 393.98 313.28 402.29 321.59 403.41 313.28 404.53 312.16 412.84 311.04 404.53 302.73 403.41 311.04 402.29 312.16 393.98"/><polygon class="cls-7" points="331.69 406.43 332.66 413.67 339.9 414.65 332.66 415.62 331.69 422.86 330.71 415.62 323.47 414.65 330.71 413.67 331.69 406.43"/></g><g><path d="M396.6,390.33h-13.76v5.57h14.97v11.03h-17.5l-2.02,3.14h12.95l7.39,13.86h-16.39l-5.87-11.13c-5.73,6.95-15.85,11.23-30.35,12.85l.1-13.25c6.41-1.35,11.43-3.17,15.08-5.46h-15.78v-11.03h20.44v-2.73c0-1.89-.78-2.83-2.33-2.83h-2.43l-1.42,2.73h-15.18l5.46-16.59h14.47l-.81,3.64h32.98v10.22Zm41.79,50.79l-.07,20.91c-.02,5.5-4.48,9.95-9.98,9.95h-80.8v-31.06c-.07-9.11,5.19-13.66,15.78-13.66h61.31c9.17,0,13.76,4.62,13.76,13.86Zm-16.79,3.04v-1.62c0-2.36-2.23-3.54-6.68-3.54h-50.59v5.16h57.26Zm-6.68,10.93h-50.59v5.16h57.26v-1.62c0-2.36-2.23-3.54-6.68-3.54Zm14.57-31.36h-27.52v-33.08c.07-8.23,4.35-12.34,12.85-12.34h12.75c8.23,0,12.31,4.18,12.24,12.55v22.56c0,5.7-4.62,10.32-10.32,10.32Zm-13.15-12.95h9.41v-15.48c0-2.63-1.25-3.95-3.74-3.95h-5.67v19.43Z"/><path d="M448.5,438.28h76.29v-1.42c0-1.21-1.62-1.82-4.86-1.82h-69.41v-7.69h74.26v-.51c0-1.55-1.82-2.33-5.46-2.33h-70.01v-8.5h13.96v-1.32c0-2.09-1.89-3.14-5.67-3.14h-9.51v-8.4h15.18v-.71c0-1.69-1.76-2.53-5.26-2.53h-9.11v-7.79h14.37v-.61c0-1.68-1.89-2.53-5.67-2.53h-9.51v-1.57c0-3.83,3.1-6.93,6.93-6.93h8.25v-4.05h16.79v4.05h12.75v8.5h-12.75v3.14h12.34v7.79h-12.34v3.24h12.75v8.4h-12.75v4.45h31.36v-1.11c0-1.96-1.69-2.93-5.06-2.93h-9.11v-8.5h14.16v-.81c0-1.82-1.48-2.73-4.45-2.73h-8.5v-7.79h12.95v-.61c0-1.68-1.55-2.53-4.65-2.53h-8.7v-8.5h13.35v-4.05h16.79v4.05h8.28c3.7,0,6.7,3,6.7,6.7v1.8h-14.97v3.14h14.16v7.79h-14.16v3.54h15.38v8.5h-15.38v4.05h2.83c7.01,0,10.52,3.07,10.52,9.21v21.55h-93.08v-8.5Zm15.58,10.83v16.59c-1.08,4.32-3.91,6.41-8.5,6.27h0c-3.69,0-6.68-2.99-6.68-6.68v-16.19h15.18Zm19.63-.2v12.75c0,1.08,.88,1.62,2.63,1.62h57.06c0,5.6-2.36,8.4-7.08,8.4h-59.09c-6.75-.07-10.12-3.58-10.12-10.52v-12.24h16.59Zm23.47,5.26c.94,1.28,2.29,1.45,4.05,.51l9.91-4.96c1.35-1.08,2.83-1.48,4.45-1.21l12.75-.1c2.29,0,3.57,.98,3.84,2.93v10.22h-17.6v-7.08l-12.95,6.17c-1.35,.81-2.9,1.15-4.65,1.01h-10.93c-2.29,0-3.84-.81-4.65-2.43l-5.06-10.62h18.41l2.43,5.56Z"/><path d="M578.51,458.52v5.56c0,4.92-2.4,7.45-7.18,7.59h-13.58c-3.79,0-6.85-3.07-6.85-6.85v-6.3h7.59v-46.84c0-4.25-2.19-6.34-6.58-6.27v-13.05h6.58v-15.88h7.25c3.71,0,6.72,3.01,6.72,6.72v9.17h5.16v13.05h-5.16v53.12h6.07Zm15.68-74.16h18.11l-1.11-7.89h15.58l1.01,7.89h3.14l-1.31-6.37h4.54c5.21,0,9.72,3.61,10.86,8.7l.68,3.04c-.4,5.19-3.14,7.79-8.19,7.79h-7.59l5.87,29.34,11.13-10.83-.1,19.53-6.48,6.58,6.07,29.64h-15.48l-4.05-18.11-9.41,8.09v-17.81l5.56-5.77-8.6-40.67h-19.43v7.49h10.02c6.54,0,9.88,3.78,10.02,11.33v55.54l-13.86,.1-.1-54.53h-6.07v45.02c-.07,6.34-2.93,9.51-8.6,9.51h-6.07l.1-75.58c.13-8.23,4.72-12.24,13.76-12.04Z"/><path d="M746.05,457c-.07,6.34-3.24,9.51-9.51,9.51h-4.65c-5.31,0-9.62-4.3-9.62-9.62v-3.54h5.06c1.34,0,2.43-1.09,2.43-2.43v-23.07c0-4.92-2.6-7.38-7.79-7.38h-11.53v45.58c0,3.32-2.7,6-6.02,5.98l-11.28-.07v-43.71c0-5.19-2.33-7.79-6.98-7.79h-11.74v36.5c0,5.27-4.27,9.54-9.54,9.54h-6.75v-46.03c0-8.63,4.38-13.02,13.15-13.15h21.85v-4.76c0-4.11-2.63-6.17-7.89-6.17h-30.76v-13.25h38.65v-6.68h17.3v6.68h39.56v13.25h-39.56v10.93h21.35c9.44,0,14.2,4.32,14.27,12.95v36.73Z"/></g><g><path d="M392.26,498.46h-9.31c-.16-4.57-2.61-6.86-7.35-6.86-4.74,.33-7.18,2.29-7.35,5.88,0,2.94,2.37,4.98,7.1,6.12,.49,.16,.9,.24,1.22,.24,.16,0,.57,.08,1.22,.25,10.61,2.12,15.84,6.29,15.67,12.49-.16,9.47-6.61,14.37-19.35,14.69-11.76,0-17.55-4.98-17.39-14.94h9.8c0,5.23,2.53,8,7.59,8.33,5.88-.16,8.9-2.12,9.06-5.88,0-3.1-2.86-5.22-8.57-6.37-.82-.16-1.39-.33-1.71-.49-9.96-2.29-14.94-6.45-14.94-12.49,.49-9.31,6.78-14.28,18.86-14.94,9.8,.49,14.94,5.14,15.43,13.96Z"/><path d="M441.73,491.84l-12.74,38.94h-8.08l-12-38.94-.24,.24v38.69h-9.06v-45.31h15.92l9.55,33.06h.24l10.29-33.06h15.18v45.31h-9.06v-38.94Z"/><path d="M465,530.78h-9.31l16.41-45.31h11.51l15.92,45.31h-9.8l-3.43-9.55h-17.88l-3.43,9.55Zm5.88-17.14h12.98l-6.12-19.35h-.24l-6.61,19.35Z"/><path d="M513.49,512.66v18.12h-9.8v-45.31h19.35c10.29,.16,15.51,4.08,15.67,11.76-.16,5.88-3.27,9.55-9.31,11.02v.25c4.41,.49,7.1,3.84,8.08,10.04,.16,.65,.24,1.14,.24,1.47,.49,5.39,1.31,8.98,2.45,10.78h-10.53c-.98-3.92-1.55-8-1.71-12.24-.33-3.92-1.72-5.88-4.16-5.88h-10.29Zm0-19.59v12h8.08c4.57,0,6.86-2.12,6.86-6.37,0-3.92-2.29-5.8-6.86-5.63h-8.08Z"/><path d="M542.39,493.07v-7.59h36.74v7.59h-13.47v37.71h-9.8v-37.71h-13.47Z"/><path d="M651.37,500.17h-10.29c-.33-5.55-3.27-8.41-8.82-8.57-5.39,.33-8.25,5.88-8.57,16.65,.33,10.61,3.18,16.08,8.57,16.41,5.71-.16,8.65-3.02,8.82-8.57h10.29c-.49,9.96-6.86,15.02-19.1,15.18-12.24-.33-18.53-8-18.86-23.02,.49-15.35,6.78-23.27,18.86-23.76,12.08,.16,18.45,5.39,19.1,15.67Z"/><path d="M666.55,485.48v45.31h-9.8v-45.31h9.8Z"/><path d="M670.96,493.07v-7.59h36.74v7.59h-13.47v37.71h-9.8v-37.71h-13.47Z"/><path d="M724.59,530.78v-14.69l-15.43-30.61h11.51l9.31,20.82,9.55-20.82h9.8l-15.18,30.61v14.69h-9.55Z"/></g></svg>